<?xml version="1.0" encoding="utf-8"?>
<!-- Generator: Adobe Illustrator 24.1.1, SVG Export Plug-In . SVG Version: 6.00 Build 0)  -->
<svg version="1.1" id="Layer_1" xmlns="http://www.w3.org/2000/svg" xmlns:xlink="http://www.w3.org/1999/xlink" x="0px" y="0px"
	 viewBox="0 0 669 245" style="enable-background:new 0 0 669 245;" xml:space="preserve">
<g transform="translate(0.000000,245.000000) scale(0.100000,-0.100000)">
	<path d="M2841.8,1764.6c-73.9-95.6-181-234.7-238.7-309.8c-57.7-75-104-136.7-102.8-137.9c0.6-1.2,493-1.8,824.8-1.2h36.7
		l134.1,174.2c73.3,95.6,152.7,199,176.1,229.9l42.7,56.3l37.3-2.4c103.4-7.3,214-107.7,243.5-221.4
		c39.1-152.5-39.7-307.9-187-368.4c-43.3-18.1-107.6-29-116.6-20c-16.2,16.3,96.8,142.2,166.5,185.1c21.6,13.3,39.1,25.4,39.7,27.2
		c0,1.8-17.4,10.9-39.1,20.6c-80,35.1-153.9,91.4-203.2,154.9c-16.8,21.8-32.5,41.7-34.3,44.2c-2.4,2.4-56.5-62.9-120.2-145.2
		c-63.7-82.3-120.2-153.7-125-157.3c-7.2-6-60.7-7.9-221.8-7.9h-212.2l21-38.1c28.3-51.4,27.7-56.9-7.2-61.7
		c-45.7-6.7-75.1-15.1-101.6-30.9c-13.2-7.9-30.1-14.5-36.7-14.5c-19.8,0-83.6-46.6-107-78c-24-33.3-48.1-92.6-54.1-135.5l-4.2-29
		l16.8,4.2c19.2,4.8,74.5,32.1,99.8,49.6c41.5,28.4,87.8,107.7,98,168.2c7.2,42.3,7.2,43,46.9,51.4c48.1,10.9,254.3,10.9,340.9,0.6
		c34.9-4.2,117.2-14.5,183.4-22.4c283.2-35.1,331.3-32.7,431.6,20c131.1,68.4,209.8,232.3,182.2,377.5
		c-22.2,116.2-93.8,213-195.4,263.8c-27.7,13.9-55.3,25.4-61.3,25.4c-22.2,0-19.2,17.5,7.8,53.2c14.4,18.8,28.9,38.1,31.3,42.3
		c3.6,5.4-83.6,7.3-427.4,7.3l-431.6-0.6L2841.8,1764.6z"/>
	<path d="M3010.7,1139.1c16.8-58.1,22.8-115.6,19.8-188.2l-3-77.4l13.2,8.5c104,68.4,195.4,97.4,307.8,97.4
		c77.6,0,173.1-21.2,230.3-50.2c13.2-7.3,25.2-12.7,26.5-12.7c1.8,0,6,22.4,10.2,49.6c3.6,27.2,12,65.9,18.6,85.9
		c6,20.6,11.4,38.7,11.4,40.5s-21.6,5.4-48.7,7.9c-26.5,2.4-102.8,10.9-169.5,19.4c-191.2,23.6-284.4,32.7-355.3,32.7
		C3007.1,1152.4,3007.1,1152.4,3010.7,1139.1z"/>
	<path d="M1313,702.3c0-4.8,4.2-9.7,9-12.1c7.2-2.4,9-16.3,9-73.2c0-69.6,0-70.8,17.4-88.3c15-14.5,22.2-17.5,48.7-17.5
		c33.7,0,62.5,12.1,72.1,29.6c3,6.7,6,40.5,6,75.6c0,48.4,2.4,65.3,9,72.6c16.2,16.3,10.2,21.8-24,21.8c-24,0-33.1-2.4-33.1-8.5
		c0-4.8,4.2-9.7,9-12.1c7.2-2.4,9-16.3,9-69.6c0-61.7-1.2-67.2-13.2-75.6c-18.6-13.3-44.5-12.1-58.9,2.4c-10.2,10.3-12,20-12,75.6
		c0,51.4,1.8,64.7,9,67.2c4.8,2.4,9,7.3,9,12.1c0,6-9,8.5-33.1,8.5C1322,710.8,1313,708.3,1313,702.3z"/>
	<path d="M1559.5,702.3c0-4.8,4.2-9.7,9-12.1c7.2-2.4,9-17.5,9-79.3s-1.8-76.8-9-79.3c-4.8-2.4-9-7.3-9-12.1c0-6,9-8.5,33.1-8.5
		c24,0,33.1,2.4,33.1,8.5c0,4.8-4.2,9.7-9,12.1c-7.2,2.4-9,15.1-9,61.7c0,70.8,1.2,70.2,54.7-19.4c33.7-56.3,39.1-62.9,54.7-62.9
		h16.8v87.7c0,72.6,1.8,88.9,9,91.4c4.8,2.4,9,7.3,9,12.1c0,6-9,8.5-36.1,8.5c-26.5,0-36.1-2.4-36.1-8.5c0-4.2,5.4-9.7,12-11.5
		c11.4-3,12.6-7.3,10.8-55.1c-1.2-28.4-4.2-52.6-7.2-53.8c-2.4-0.6-22.8,27.8-45.1,63.5l-39.7,65.3h-25.2
		C1567.3,710.8,1559.5,708.3,1559.5,702.3z"/>
	<path d="M1818,704.1c0-3.6,4.2-10.3,9-15.1c7.2-7.3,9-24.8,9-78s-1.8-70.8-9-78c-16.2-16.3-10.2-21.8,24-21.8
		c24,0,33.1,2.4,33.1,8.5c0,4.8-4.2,9.7-9,12.1c-7.2,2.4-9,17.5-9,79.3s1.8,76.8,9,79.3c4.8,2.4,9,7.3,9,12.1c0,6-9,8.5-33.1,8.5
		C1831.8,710.8,1818,708.3,1818,704.1z"/>
	<path d="M1944.2,702.9c0-4.2,4.8-10.3,11.4-14.5c6-3.6,12.6-13.9,15-22.4c1.8-8.5,15-46.6,28.3-85.3c24.6-70.2,25.2-70.2,43.3-68.4
		c18,1.8,19.2,3.6,46.3,85.9c15,46,31.9,87.1,37.9,91.4c19.2,13.9,11.4,21.2-22.8,21.2c-24.6,0-33.1-2.4-33.1-9.1
		c0-4.2,4.2-10.9,9-13.3c7.2-4.2,6-13.3-9.6-62.3c-20.4-62.9-26.5-76.8-30.7-69c-1.8,3-12,32.7-22.8,65.3
		c-18,54.4-18.6,60.5-9.6,67.2c19.2,14.5,10.8,21.2-26.5,21.2C1955,710.8,1944.2,708.3,1944.2,702.9z"/>
	<path d="M2196.7,702.3c0-4.8,4.2-9.7,9-12.1c7.2-2.4,9-16.9,9-75.6c0-56.3-1.8-74.4-9-81.7c-18.6-18.8-10.2-21.8,60.1-21.8h69.1
		v24.2c0,21.8-1.2,24.2-15,24.2c-11.4,0-15-3-15-12.7c0-10.9-3-12.1-28.3-10.3l-28.9,1.8v30.2v30.2l34.9,1.8
		c28.9,1.8,34.3,3.6,34.3,13.3s-5.4,11.5-34.3,13.3l-34.9,1.8v27.2v27.2l25.9,1.8c18.6,1.2,26.5-0.6,28.9-7.3c1.8-5.4,9-9.7,15-9.7
		c9,0,11.4,4.2,11.4,21.2v21.2h-66.1C2210.5,710.8,2196.7,708.9,2196.7,702.3z"/>
	<path d="M2404.1,704.7c-1.8-3.6,0.6-7.9,5.4-9.7c13.8-5.4,14.4-158.5,0.6-163.3c-4.8-2.4-9-7.3-9-12.1c0-6,9-8.5,36.1-8.5
		c27.1,0,36.1,2.4,36.1,8.5c0,4.8-4.2,9.7-9,12.1c-6.6,2.4-9,12.1-9,33.9c0,29,0.6,30.2,16.8,30.2c22.2,0,29.5-5.4,40.9-33.3
		c8.4-21.8,9-24.2,0-30.9c-19.2-13.9-10.2-20.6,26.5-20.6c37.3,0,46.9,8.5,25.2,21.8c-5.4,3.6-16.8,21.8-24,40.5l-13.8,33.9l12,12.1
		c26.5,26.6,21,67.2-11.4,83.5C2509.3,712,2409.5,713.2,2404.1,704.7z M2511.7,682.9c12.6-12.1,12-44.2-0.6-58.1
		c-6-6.7-18-10.9-33.1-10.9h-22.8v35.1c0,19.4,1.8,37.5,4.2,39.3C2466.6,696.2,2502.7,692.6,2511.7,682.9z"/>
	<path d="M2667.4,701.7c-19.8-8.5-30.1-29.6-26.5-54.4c1.8-16.9,27.1-38.1,54.7-45.4c28.3-7.9,43.3-26,36.7-44.8
		c-9.6-26-66.7-29-66.7-3.6c0,7.9-4.2,12.1-12,12.1c-9.6,0-12-4.2-12-21.2c0-25.4,12-33.3,51.1-33.3c49.3,0,75.1,21.8,75.1,62.3
		c0,24.8-16.8,42.3-53.5,55.7c-32.5,11.5-42.7,19.4-42.7,33.3c0,29,51.1,40.5,63.1,13.9c9-21.2,27.1-18.1,27.1,4.2
		c0,14.5-3.6,20-15.6,24.2C2724.5,713.2,2690.3,712,2667.4,701.7z"/>
	<path d="M2840,701.7c0-4.8,3-9.1,6-9.1c3.6,0,6-30.2,6-78c0-61.7-1.8-79.3-9-85.3c-16.2-13.3-9.6-18.1,27.1-18.1
		c27.1,0,36.1,2.4,36.1,8.5c0,4.8-4.2,9.7-9,12.1c-13.2,4.8-13.2,153.7,0,158.5c4.8,2.4,9,7.3,9,12.1c0,6-9,8.5-33.1,8.5
		C2847.8,710.8,2840,708.9,2840,701.7z"/>
	<path d="M2966.2,686.6c0-21.8,1.8-24.2,14.4-24.2c10.8,0,15,3.6,16.8,13.9c1.2,8.5,6.6,13.9,15.6,15.1c13.2,1.8,13.2,1.8,13.2-79.9
		c0-78-0.6-82.3-12-82.3c-6.6,0-12-4.2-12-9.1c0-7.3,8.4-9.1,42.1-9.1c31.9,0,42.1,1.8,42.1,8.5c0,4.2-5.4,9.7-12,11.5
		c-12,3-12,7.3-10.8,81.1c1.8,75,2.4,77.4,15,79.3c10.2,1.8,14.4-1.8,17.4-13.3c2.4-10.3,7.8-15.7,15-15.7c9,0,11.4,4.2,11.4,24.2
		v24.2h-78.2h-78.2V686.6z"/>
	<path d="M3206.7,701.7c0-4.8,3-9.1,6-9.1c10.2,0,6.6-18.8-15.6-87.7c-12.6-38.7-26.5-70.2-33.1-75c-19.2-13.9-13.2-18.8,21.6-18.8
		c25.2,0,33.1,1.8,33.1,9.1c0,4.8-2.4,9.1-6,9.1c-7.2,0-7.8,24.2-0.6,35.1c3,5.4,15.6,7.3,39.7,6c33.1-1.8,35.5-3,39.7-18.8
		c3.6-12.1,2.4-18.1-4.2-20.6c-4.8-1.8-8.4-6.7-8.4-11.5c0-6,9-8.5,36.1-8.5c26.5,0,36.1,2.4,36.1,8.5c0,4.2-4.8,9.7-10.2,10.9
		c-7.8,2.4-18.6,26.6-37.3,84.1c-14.4,44.8-28.9,84.7-31.9,88.9C3262.6,714.4,3206.7,713.2,3206.7,701.7z M3267.4,640.6
		c16.8-47.2,15.6-50.8-15.6-50.8c-24,0-27.1,1.2-27.1,13.9c0,21.8,18.6,71.4,25.9,69C3254.2,671.4,3262,657.5,3267.4,640.6z"/>
	<path d="M3447.2,706.5c-19.8-7.3-36.1-28.4-36.1-47.2c0-27.8,13.2-42.3,53.5-56.9c41.5-15.1,52.9-33.9,33.7-55.1
		c-18-20-63.1-14.5-63.1,6.7c0,7.3-4.2,11.5-12,11.5c-9.6,0-12-4.2-12-21.2c0-25.4,13.8-33.3,60.1-33.3c51.7,0,84.8,43,63.7,83.5
		c-7.2,13.9-18.6,21.8-46.9,32.7c-34.9,13.3-37.9,16.3-39.7,33.9c-1.8,15.7,0.6,20.6,13.2,26c20.4,9.7,45.7,2.4,45.7-12.7
		c0-7.9,4.2-12.1,12-12.1c9.6,0,12,4.2,12,20.6c0,15.7-3,21.2-13.2,24.2C3501.3,711.4,3459.8,711.4,3447.2,706.5z"/>
	<path d="M3744.1,702.3c-20.4-9.1-26.5-19.4-26.5-46.6c0-23.6,21.6-44.8,52.9-53.8c42.7-10.9,56.5-38.1,30.1-56.9
		c-23.4-16.3-58.9-10.9-58.9,9.1c0,7.3-4.2,11.5-12,11.5c-9.6,0-12-4.2-12-21.2c0-26,12-33.3,54.1-33.3c52.9,0,86,34.5,72.1,75
		c-6.6,20.6-24.6,33.9-61.9,46c-26.5,8.5-37.9,24.8-28.3,42.3c12,23,60.1,23,60.1-0.6c0-7.3,4.2-11.5,12-11.5c9.6,0,12,4.2,12,20.6
		c0,18.1-2.4,20.6-18.6,24.2C3790.4,712.6,3764.6,711.4,3744.1,702.3z"/>
	<path d="M3910.1,702.3c0-4.8,4.2-9.7,9-12.1c7.2-2.4,9-15.7,9-64.7c0-93.2,15.6-114.3,82.4-114.3c22.8,0,30.7,3.6,47.5,20.6
		l20.4,20.6v67.2c0,54.4,1.8,68.4,9,70.8c4.8,2.4,9,7.3,9,12.1c0,6-9,8.5-33.1,8.5c-24,0-33.1-2.4-33.1-8.5c0-4.8,4.2-9.7,9-12.1
		c7.2-2.4,9-15.7,9-64.1c0-56.9-1.2-62.3-15-75.6c-16.8-17.5-36.7-19.4-55.9-5.4c-12,8.5-13.2,13.9-13.2,75
		c0,55.1,1.8,67.2,9.6,71.4c18,10.3,2.4,19.4-31.3,19.4C3919.1,710.8,3910.1,708.3,3910.1,702.3z"/>
	<path d="M4162.6,704.1c0-4.2,4.2-10.3,9-13.9c7.8-5.4,8.4-18.1,5.4-78c-3-47.2-7.2-74.4-12.6-79.9c-15-15.7-8.4-21.2,25.2-21.2
		c24,0,33.1,2.4,33.1,8.5c0,4.8-4.2,9.7-9,12.1c-7.2,2.4-9,14.5-9,54.4c0,28.4,2.4,52.6,5.4,54.4c3,2.4,15.6-22.4,27.7-53.8
		c19.2-49,24.6-58.1,34.9-56.3c9,1.2,16.8,15.1,33.1,58.1c11.4,30.2,23.4,55.7,25.9,55.7c3,0,5.4-14.5,5.4-32.7
		c0-17.5,1.8-40.5,3.6-50.2c2.4-12.1,0.6-21.2-6-27.8c-16.8-16.9-10.8-22.4,23.4-22.4c33.7,0,42.1,7.3,24,20.6
		c-7.2,5.4-10.2,24.2-13.2,80.5c-3,65.3-2.4,74.4,6,78c6,1.8,10.2,7.3,10.2,12.1c0,6-8.4,8.5-28.9,8.5h-28.3l-24-64.7
		c-13.2-36.3-27.1-65.3-30.1-65.3s-13.2,20.6-22.2,45.4c-31.9,85.3-31.3,84.7-61.9,84.7C4173.4,710.8,4162.6,707.7,4162.6,704.1z"/>
	<path d="M4471,706.5c-15.6-3-18-10.9-4.8-16.3c7.2-2.4,9-16.9,9-75.6c0-56.3-1.8-74.4-9-81.7c-16.8-16.9-10.2-21.8,30.1-21.8
		c29.5,0,39.1,1.8,39.1,8.5c0,4.8-7.2,10.3-15.6,12.1c-13.8,3.6-15,6.7-13.2,29.6l1.8,25.4l30.7,3.6c40.3,4.8,55.9,14.5,66.1,39.3
		c10.2,25.4,6,44.8-13.8,64.1c-12.6,11.5-21.6,13.9-60.7,15.1C4505.2,708.9,4478.2,708.3,4471,706.5z M4564.2,682.9
		c9-6.7,13.2-15.1,13.2-30.2c0-28.4-17.4-44.8-48.1-44.8h-24V646c0,21.2,1.8,40.5,4.2,42.3C4516.7,696.2,4550.3,692.6,4564.2,682.9z
		"/>
	<path d="M4679.6,701.7c0-4.8,3-9.1,6-9.1c3.6,0,6-30.2,6-78c0-61.7-1.8-79.3-9-85.3c-16.2-13.3-9.6-18.1,27.1-18.1
		c27.1,0,36.1,2.4,36.1,8.5c0,4.8-4.2,9.7-9,12.1c-7.2,2.4-9,17.5-9,79.3s1.8,76.8,9,79.3c4.8,2.4,9,7.3,9,12.1c0,6-9,8.5-33.1,8.5
		C4687.4,710.8,4679.6,708.9,4679.6,701.7z"/>
	<path d="M4811.8,702.3c0-4.8,4.2-9.7,9-12.1c7.2-2.4,9-17.5,9-79.3s-1.8-76.8-9-79.3c-4.8-2.4-9-7.3-9-12.1c0-6,9-8.5,36.1-8.5
		c38.5,0,43.3,4.8,24,24.2c-10.2,10.3-12,20-12,60.5c0,26.6,2.4,48.4,5.4,48.4c8.4,0,23.4-21.2,57.7-80.5
		c25.9-45.4,32.5-52,46.9-52.6h16.2v87.7c0,72.6,1.8,88.9,9,91.4c4.8,2.4,9,7.3,9,12.1c0,6-9,8.5-36.1,8.5c-36.7,0-45.7-6.7-24-18.1
		c10.8-5.4,12-12.7,12-60.5c0-30.2-2.4-54.4-4.8-54.4c-2.4,0-23.4,30.2-46.3,66.5l-41.5,66.5h-25.9
		C4819.7,710.8,4811.8,708.3,4811.8,702.3z"/>
	<path d="M5119.6,698.1c-33.7-16.9-45.7-40.5-46.3-90.1c0-45.4,9.6-65.9,40.9-84.7c21.6-13.3,63.7-15.7,93.8-5.4
		c18,6.7,18.6,7.9,18.6,42.3c0,20,2.4,35.7,6,35.7c3.6,0,6,4.2,6,9.1c0,7.3-7.8,9.1-33.1,9.1c-24,0-33.1-2.4-33.1-8.5
		c0-4.2,5.4-9.7,12-11.5c16.8-4.2,17.4-49.6,0.6-58.7c-19.2-10.3-40.9-7.3-58.9,8.5c-16.2,13.9-16.8,16.9-16.8,66.5
		c0,64.1,9.6,78,55.3,78.6c27.1,0.6,28.9-0.6,30.7-15.7c1.2-12.1,5.4-16.9,13.8-16.9c9,0,11.4,4.2,11.4,23.6s-2.4,24.2-13.2,27.2
		C5180.4,714.4,5144.9,710.8,5119.6,698.1z"/>
</g>
</svg>
